<svg version="1.1" id="Layer_1" xmlns="http://www.w3.org/2000/svg" xmlns:xlink="http://www.w3.org/1999/xlink" x="0px" y="0px"
	 width="100%" viewBox="0 0 512 512" enable-background="new 0 0 512 512" xml:space="preserve">
<path fill="#FF5A54" opacity="1.000000" stroke="none" 
	d="
M224.704697,1.242235 
	C246.020889,1.000000 267.041779,1.000000 288.531342,1.000000 
	C293.667267,2.932925 298.663239,2.105417 303.491913,2.686611 
	C320.832520,4.773761 337.231873,10.214131 353.372284,16.537384 
	C391.145325,31.335569 423.141113,54.557102 450.164154,84.526451 
	C480.322327,117.972717 500.063080,156.980255 509.981140,200.931702 
	C511.725128,208.660049 511.165985,216.637054 512.757690,224.704010 
	C513.000000,246.020889 513.000000,267.041779 513.000000,288.531342 
	C510.919739,294.627289 512.026611,300.626129 510.982941,306.369751 
	C507.771851,324.041504 503.561523,341.404205 494.631195,357.597717 
	C491.164093,359.027191 489.154999,357.083374 487.399811,355.077637 
	C476.773529,342.934601 465.797729,331.105988 454.995117,319.123322 
	C447.531494,310.844360 440.005371,302.616516 432.544403,294.332977 
	C417.738617,277.894867 402.821716,261.557495 388.024506,245.111298 
	C377.788269,233.734314 367.487976,222.413528 357.246063,211.040131 
	C342.108002,194.229706 326.824371,177.550827 311.669983,160.754379 
	C303.869751,152.108948 296.283173,143.253098 288.102570,134.956635 
	C285.397797,132.213562 282.903015,129.274033 280.743103,126.165031 
	C279.120972,123.830086 277.140625,122.378654 274.523102,120.826874 
	C273.597076,119.555084 273.005310,118.546440 272.290527,117.622665 
	C266.970917,110.747513 259.434326,107.965988 252.046173,110.146347 
	C244.615097,112.339378 239.517807,118.739403 238.605621,127.106934 
	C238.280014,130.093903 238.414490,133.101578 238.414124,136.100357 
	C238.406601,197.765244 238.414154,259.430115 238.399445,321.095001 
	C238.398575,324.756683 238.594086,328.431213 237.860291,332.469238 
	C235.819199,335.874908 234.182251,334.296600 232.124451,332.805206 
	C225.679916,328.134460 220.950623,321.615631 214.305450,316.695740 
	C213.382889,316.286133 212.837555,315.916687 212.024155,315.406250 
	C211.571121,315.186829 211.392517,315.097656 210.952484,314.870483 
	C210.520996,314.637115 210.350967,314.541809 209.695282,314.134644 
	C209.055649,313.708344 208.901688,313.593903 208.248978,313.176300 
	C207.410568,312.661011 207.081604,312.433380 206.510864,312.004944 
	C205.153854,310.820068 204.161270,309.704620 202.816986,308.509033 
	C202.447556,308.157135 202.304672,308.015167 201.960999,307.658966 
	C201.634933,307.301849 201.509644,307.158997 201.200775,306.809357 
	C200.896210,306.470703 200.775269,306.338837 200.323669,305.814392 
	C199.993011,305.421844 199.679871,305.041626 199.365356,304.680237 
	C199.050827,304.318878 198.727509,303.975006 198.390579,303.646301 
	C198.053650,303.317627 197.697952,303.001953 197.318451,302.697937 
	C196.805313,302.290344 196.671677,302.186768 196.126465,301.741150 
	C195.576752,301.270782 195.438629,301.142487 194.860718,300.609985 
	C194.267593,300.060730 194.114273,299.915710 193.727173,299.544250 
	C187.722763,293.555542 182.078003,287.665253 176.199844,282.013092 
	C167.972214,274.101807 157.176529,273.608734 149.797775,280.687897 
	C142.448868,287.738434 142.223862,298.794250 149.269272,307.307007 
	C150.331192,308.590118 151.546112,309.734161 152.721466,310.912048 
	C180.112335,338.361877 207.577545,365.737396 234.963348,393.192261 
	C238.039017,396.275726 241.614136,398.706665 245.360901,401.507294 
	C246.059860,401.974579 246.448517,402.261169 247.087738,402.825012 
	C247.510056,403.271271 247.666000,403.461823 248.019791,403.961853 
	C248.807495,405.874298 249.824615,407.103149 251.176544,408.177734 
	C265.364197,419.455170 278.254456,432.205200 291.888489,444.111511 
	C309.396942,459.401215 326.353821,475.309662 343.975952,490.471405 
	C346.104614,492.302856 348.493378,494.049561 347.956299,497.793243 
	C346.506042,500.640747 343.905029,501.067047 341.614258,501.857910 
	C325.384613,507.461060 308.905670,511.886993 291.562592,512.035767 
	C290.892944,512.041504 290.253448,512.186340 289.328735,512.750671 
	C267.979095,513.000000 246.958206,513.000000 225.468658,513.000000 
	C220.776443,511.146118 216.223495,511.823639 211.832626,511.414398 
	C195.759811,509.916290 180.595657,504.948975 165.616653,499.421051 
	C136.267792,488.590057 109.806564,472.659851 86.458778,451.951172 
	C65.070915,432.980896 46.754890,411.288208 32.461124,386.339233 
	C20.045858,364.669159 11.116016,341.679932 5.023787,317.491730 
	C2.706522,308.291412 2.774256,298.874573 1.242303,289.295685 
	C1.000000,267.645782 1.000000,246.291550 1.000000,224.468658 
	C2.851483,219.671997 2.179680,215.015518 2.701747,210.519180 
	C4.715909,193.172012 10.243114,176.807755 16.519531,160.663986 
	C27.243547,133.080429 42.640564,108.211502 62.257267,86.206245 
	C99.771027,44.124767 145.954346,16.263899 201.211411,3.982827 
	C208.831284,2.289282 216.712509,2.662676 224.704697,1.242235 
z"/>
<path fill="#000000" opacity="1.000000" stroke="none" 
	d="
M513.000000,224.531342 
	C510.734314,226.003998 511.133026,224.083359 511.039734,223.063538 
	C509.324402,204.313370 504.324463,186.334518 497.974579,168.724503 
	C489.251862,144.533951 476.827911,122.345963 461.371002,101.779564 
	C451.581909,88.754532 440.318115,77.103691 428.425568,66.123520 
	C414.734192,53.482441 399.450378,42.909046 383.254547,33.576305 
	C361.102234,20.811193 337.396698,12.219194 312.652283,6.402252 
	C305.720154,4.772636 298.688995,2.970845 291.436676,3.008176 
	C290.205170,3.014515 289.122009,2.834370 288.698181,1.361357 
	C362.261658,1.000000 435.523407,1.035820 508.784790,0.894920 
	C512.473450,0.887826 513.097412,1.757346 513.091553,5.276858 
	C512.970032,78.205315 513.000000,151.134018 513.000000,224.531342 
z"/>
<path fill="#000000" opacity="1.000000" stroke="none" 
	d="
M492.802368,357.272125 
	C501.312317,339.386475 505.967194,320.594879 509.906586,301.612091 
	C510.816681,297.226624 510.242157,292.550842 512.653198,288.675568 
	C513.000000,362.261658 512.964172,435.523407 513.105042,508.784790 
	C513.112183,512.473450 512.242676,513.097412 508.723145,513.091553 
	C435.794708,512.970032 362.865967,513.000000 289.468658,513.000000 
	C288.036896,511.315216 289.442932,511.149292 290.413239,511.067780 
	C309.868500,509.433655 328.338776,503.659790 346.966736,497.396179 
	C347.864288,494.162354 350.419678,493.434875 352.698364,492.537384 
	C374.403015,483.988464 394.260986,472.203003 412.636444,457.943726 
	C439.528046,437.075989 461.452576,411.846985 478.249115,382.192322 
	C482.192749,375.229858 485.998718,368.210571 489.066345,360.811523 
	C489.733917,359.201294 490.705475,357.917938 492.802368,357.272125 
z"/>
<path fill="#000000" opacity="1.000000" stroke="none" 
	d="
M1.000000,289.468658 
	C3.197184,288.134399 2.858865,289.936707 2.967647,290.996887 
	C5.462825,315.315033 12.568413,338.352661 22.265999,360.672119 
	C32.202908,383.542389 45.484196,404.282166 61.684662,423.232849 
	C85.250145,450.798828 113.167595,472.737732 145.891052,488.353546 
	C166.453979,498.166260 187.864258,505.492065 210.487534,509.224762 
	C215.503174,510.052307 220.863220,509.878204 225.304108,512.640381 
	C151.738327,513.000000 78.476593,512.964172 5.215190,513.105103 
	C1.526532,513.112183 0.902595,512.242676 0.908459,508.723145 
	C1.029969,435.794708 1.000000,362.865967 1.000000,289.468658 
z"/>
<path fill="#000000" opacity="1.000000" stroke="none" 
	d="
M224.531342,1.000000 
	C225.884109,3.206002 224.064102,2.854938 223.011749,2.967052 
	C198.717484,5.555263 175.645752,12.533725 153.327927,22.259283 
	C130.456558,32.226055 109.712227,45.513680 90.739365,61.706593 
	C62.507183,85.802116 40.321560,114.527283 24.538677,148.077454 
	C15.391496,167.521927 8.902874,187.889221 4.860035,209.057465 
	C3.868326,214.250061 4.203382,219.758118 1.346988,224.323822 
	C1.000000,151.071487 1.036031,78.142906 0.894796,5.214671 
	C0.887650,1.524596 1.759262,0.902722 5.277360,0.908576 
	C78.205650,1.029919 151.134186,1.000000 224.531342,1.000000 
z"/>
<path fill="#DB3A3C" opacity="1.000000" stroke="none" 
	d="
M492.820984,356.917603 
	C485.587158,376.960876 474.216431,394.628174 461.831512,411.717834 
	C451.867401,425.467072 439.918732,437.457214 427.480072,448.839386 
	C414.071533,461.109100 399.124756,471.438019 383.266663,480.463806 
	C371.892212,486.937683 360.092865,492.361359 347.529175,497.037079 
	C339.467834,489.983307 331.854034,482.816559 324.066650,475.843658 
	C310.337006,463.549957 296.457245,451.424011 282.723999,439.134308 
	C271.215393,428.835388 259.818329,418.411652 248.399963,408.012329 
	C247.567734,407.254395 246.963943,406.245636 246.197861,405.010864 
	C247.450745,403.133514 249.199936,403.385315 250.781387,403.794373 
	C261.870667,406.662598 270.278473,401.721649 277.694885,394.393921 
	C294.755829,377.536865 311.646637,360.507965 328.606445,343.548798 
	C339.912994,332.242676 351.238281,320.955292 362.514618,309.619019 
	C366.627655,305.484100 369.463470,300.811707 369.612701,294.695740 
	C369.794434,287.247559 366.541565,281.716705 360.284515,278.230835 
	C353.777252,274.605560 347.146576,275.175293 340.938080,279.426880 
	C338.862640,280.848145 337.161682,282.691315 335.395447,284.455444 
	C319.132965,300.698700 302.890289,316.961761 286.629364,333.206543 
	C285.333344,334.501312 284.083740,335.854126 282.646759,336.991089 
	C279.017273,339.862701 276.404694,338.824707 275.827820,334.241455 
	C275.473785,331.429016 275.626526,328.585114 275.626251,325.754486 
	C275.620209,261.796112 275.582733,197.837646 275.712646,133.879547 
	C275.721619,129.456726 274.094086,125.007065 276.060150,120.324905 
	C280.143768,121.491684 282.326752,124.796082 284.866791,127.584358 
	C296.174896,139.997635 307.326691,152.553131 318.570923,165.024811 
	C336.718842,185.153732 354.872681,205.277390 373.066376,225.364914 
	C387.131958,240.894653 401.293365,256.337646 415.356293,271.869781 
	C433.211365,291.590240 450.979584,311.389374 468.846924,331.098663 
	C476.661072,339.718384 484.628143,348.199463 492.820984,356.917603 
z"/>
<path fill="#FFFDFD" opacity="1.000000" stroke="none" 
	d="
M276.186890,119.796646 
	C277.588257,123.737473 277.824127,127.528084 277.822510,131.385971 
	C277.794464,198.167511 277.802399,264.949066 277.802490,331.730621 
	C277.802490,333.645996 277.802490,335.561340 277.802490,338.513855 
	C279.945862,336.476776 281.249969,335.290314 282.495667,334.045441 
	C300.518646,316.033936 318.457886,297.937805 336.578064,280.024658 
	C348.273315,268.463074 366.991821,272.918427 371.415131,288.277466 
	C373.849274,296.729492 371.239441,303.900238 365.040680,310.068024 
	C344.263123,330.741516 323.585602,351.515594 302.866302,372.247650 
	C294.390381,380.728851 285.968658,389.265533 277.406982,397.659332 
	C268.733002,406.163300 258.759308,409.612915 246.522034,404.770691 
	C246.141754,404.668243 246.001099,404.816071 246.068756,404.892456 
	C245.598755,404.534760 244.859085,404.527740 244.165131,403.802612 
	C239.742798,400.583130 236.000000,397.072449 232.353180,393.418091 
	C204.493484,365.500671 176.568283,337.648590 148.718155,309.721619 
	C139.362869,300.340546 139.292282,287.003754 148.370728,278.771606 
	C156.588821,271.319611 168.589737,271.505493 176.818939,279.422424 
	C183.052170,285.419159 189.067566,291.642365 195.476944,297.898102 
	C196.099686,298.207977 196.397720,298.423279 196.849823,298.884155 
	C197.027878,299.096069 197.016235,298.965302 196.950806,298.970764 
	C197.170746,299.194031 197.437744,299.432434 197.854828,299.900970 
	C198.023346,300.110504 198.022598,299.976807 197.955750,299.976868 
	C198.172516,300.194702 198.438065,300.432648 198.854095,300.898895 
	C199.022522,301.107117 199.022186,300.977905 198.957581,300.977783 
	C199.174576,301.195923 199.438766,301.433563 199.853790,301.897705 
	C200.021973,302.104919 200.021805,301.978638 199.958664,301.978394 
	C200.175415,302.196625 200.438522,302.433685 200.852982,302.895508 
	C201.021240,303.101501 201.021042,302.979370 200.959976,302.979187 
	C201.177048,303.197571 201.438828,303.434235 201.852402,303.893860 
	C202.020523,304.098724 202.020416,303.980103 201.961090,303.979858 
	C202.178177,304.198242 202.438751,304.434326 202.851501,304.891541 
	C203.019608,305.095093 203.029236,304.986969 202.975189,304.981812 
	C203.208847,305.210938 203.467621,305.473663 203.832336,306.007324 
	C205.043396,307.429169 206.119614,308.608551 207.471695,309.909729 
	C208.315674,310.381622 208.982910,310.478668 209.661774,311.069977 
	C209.741791,311.389679 209.541855,311.275604 209.486038,311.376251 
	C209.933212,311.093018 210.347794,311.171783 210.656967,312.101288 
	C210.640213,312.488068 210.526688,312.372192 210.471375,312.431519 
	C210.920517,312.081787 211.339340,312.155548 211.649765,313.107544 
	C211.627319,313.501343 211.381500,313.577881 211.417175,313.701569 
	C213.066727,313.089081 213.059128,314.953979 214.232376,315.571167 
	C220.464142,321.011169 225.585052,327.124451 231.697861,332.201660 
	C232.804825,333.121094 233.562805,334.624420 235.673172,334.199341 
	C236.064590,331.886871 236.221390,329.729279 236.221817,327.571655 
	C236.235016,262.135223 236.236710,196.698792 236.222733,131.262360 
	C236.221954,127.585457 236.257889,123.918198 237.636826,120.446327 
	C240.813004,112.449341 246.682220,107.687294 255.266830,107.044907 
	C264.949127,106.320389 271.873749,110.758018 276.186890,119.796646 
z"/>
<path fill="#E04445" opacity="1.000000" stroke="none" 
	d="
M235.699554,333.862549 
	C236.271530,335.180237 236.465073,336.313568 235.600723,338.063751 
	C228.369415,330.850861 221.296692,323.796173 214.081314,316.443787 
	C213.796265,315.911316 213.653885,315.676514 213.778030,315.127716 
	C217.177460,315.877563 218.907791,318.650452 221.206970,320.722595 
	C225.968979,325.014343 230.684036,329.358215 235.699554,333.862549 
z"/>
<path fill="#E54B4B" opacity="1.000000" stroke="none" 
	d="
M213.882370,314.545471 
	C214.026520,315.035736 214.008514,315.257782 213.964584,315.812927 
	C213.223770,315.526978 212.508865,314.907837 211.623413,314.057007 
	C212.306931,313.482880 213.093369,313.479767 213.882370,314.545471 
z"/>
<path fill="#DB3A3C" opacity="1.000000" stroke="none" 
	d="
M244.256531,403.725403 
	C244.628983,403.783417 245.242752,404.068726 245.996445,404.661438 
	C245.590210,404.630157 245.044037,404.291443 244.256531,403.725403 
z"/>
<path fill="#E54B4B" opacity="1.000000" stroke="none" 
	d="
M209.531265,311.159241 
	C209.178314,311.121033 208.614838,310.852417 207.899460,310.307678 
	C208.271957,310.330658 208.796356,310.629730 209.531265,311.159241 
z"/>
<path fill="#E54B4B" opacity="1.000000" stroke="none" 
	d="
M200.837677,302.910156 
	C200.698013,302.913452 200.374786,302.725403 199.973541,302.257751 
	C200.148392,302.225067 200.401260,302.471924 200.837677,302.910156 
z"/>
<path fill="#E54B4B" opacity="1.000000" stroke="none" 
	d="
M201.837585,303.908020 
	C201.697784,303.911652 201.375046,303.724579 200.975616,303.258240 
	C201.150818,303.225098 201.402740,303.471191 201.837585,303.908020 
z"/>
<path fill="#E54B4B" opacity="1.000000" stroke="none" 
	d="
M202.837219,304.905182 
	C202.697342,304.909241 202.375076,304.723389 201.977295,304.258575 
	C202.152786,304.224854 202.403793,304.470062 202.837219,304.905182 
z"/>
<path fill="#E54B4B" opacity="1.000000" stroke="none" 
	d="
M203.803528,306.028381 
	C203.663849,306.014465 203.360519,305.779144 202.989166,305.260254 
	C203.160736,305.253418 203.400314,305.530182 203.803528,306.028381 
z"/>
<path fill="#E54B4B" opacity="1.000000" stroke="none" 
	d="
M199.837906,301.912842 
	C199.698318,301.915741 199.374664,301.726593 198.971985,301.257538 
	C199.146591,301.225342 199.400223,301.473083 199.837906,301.912842 
z"/>
<path fill="#E54B4B" opacity="1.000000" stroke="none" 
	d="
M210.478577,312.274567 
	C210.299423,312.340912 209.958633,312.193756 209.524033,311.761749 
	C209.725800,311.671600 210.021378,311.866333 210.478577,312.274567 
z"/>
<path fill="#E54B4B" opacity="1.000000" stroke="none" 
	d="
M211.469376,313.284302 
	C211.290436,313.350800 210.953568,313.200287 210.516373,312.770264 
	C210.714508,312.682953 211.012970,312.875092 211.469376,313.284302 
z"/>
<path fill="#E54B4B" opacity="1.000000" stroke="none" 
	d="
M198.837708,300.914642 
	C198.698456,300.917145 198.374405,300.727142 197.969620,300.257019 
	C198.143570,300.225311 198.398239,300.473724 198.837708,300.914642 
z"/>
<path fill="#E54B4B" opacity="1.000000" stroke="none" 
	d="
M197.837738,299.917419 
	C197.698975,299.919220 197.374603,299.727936 196.967804,299.256409 
	C197.140961,299.225586 197.396545,299.474976 197.837738,299.917419 
z"/>
<path fill="#E54B4B" opacity="1.000000" stroke="none" 
	d="
M196.826340,298.910828 
	C196.697922,298.914734 196.367966,298.733398 195.906006,298.291748 
	C196.057587,298.262817 196.341202,298.494232 196.826340,298.910828 
z"/>
</svg>